<svg width="255" height="255" viewBox="0 0 255 255" fill="none" xmlns="http://www.w3.org/2000/svg">
<path d="M255 127.5C255 93.6849 241.567 61.2548 217.656 37.3439C193.745 13.433 161.315 2.55297e-06 127.5 0C93.6849 -2.55297e-06 61.2548 13.433 37.3439 37.3439C13.433 61.2548 5.10594e-06 93.6849 0 127.5L90.1204 127.5C90.1204 117.586 94.0586 108.079 101.069 101.069C108.079 94.0586 117.586 90.1204 127.5 90.1204C137.414 90.1204 146.921 94.0586 153.931 101.069C160.941 108.079 164.88 117.586 164.88 127.5H255Z" fill="#F22F2F"/>
<path d="M0 127.5C0 161.315 13.433 193.745 37.3439 217.656C61.2548 241.567 93.6849 255 127.5 255C161.315 255 193.745 241.567 217.656 217.656C241.567 193.745 255 161.315 255 127.5L167.448 127.5C167.448 138.095 163.239 148.256 155.747 155.747C148.256 163.239 138.095 167.448 127.5 167.448C116.905 167.448 106.744 163.239 99.2526 155.747C91.761 148.256 87.5522 138.095 87.5522 127.5H0Z" fill="#F2F2F2"/>
<rect y="120" width="255" height="14" fill="black"/>
<circle cx="127.5" cy="127.5" r="62.5" fill="black"/>
<circle cx="127.5" cy="127.5" r="48.5" fill="#D9D9D9"/>
<circle cx="127.5" cy="127.5" r="37.5" fill="white"/>
</svg>
